<?xml version="1.0" encoding="UTF-8"?>
<svg enable-background="new 0 0 90.5 106.2" version="1.1" viewBox="0 0 90.5 106.2" xml:space="preserve" xmlns="http://www.w3.org/2000/svg">
<style type="text/css">
	.st0{fill:none;}
	.st1{font-family:'roboto';}
	.st2{font-size:7.5px;}
	.st3{fill:#D8D8D8;}
	.st4{fill:#EF781F;}
	.st5{fill:none;stroke:#1D1E1C;stroke-width:0.2174;stroke-miterlimit:10;}
	.st6{fill:#1D1D1B;}
	.st7{font-family:'roboto';}
	.st8{font-size:7.4133px;}
	.st9{font-size:7.2645px;}
</style>
			<line class="st0" x1="-2.4" x2="91.9" y1="90.6" y2="90.6"/>
					<line class="st0" x1="-2.4" x2="-2.4" y1="90.6" y2="88.8"/>
					<line class="st0" x1="91.9" x2="91.9" y1="90.6" y2="88.8"/>
				<text class="st0 st1 st2" transform="translate(-3.828 92.297)">0</text>
				<text class="st0 st1 st2" transform="translate(-3.828 79.741)">10</text>
				<text class="st0 st1 st2" transform="translate(-3.828 67.185)">20</text>
				<text class="st0 st1 st2" transform="translate(-3.828 54.63)">30</text>
				<text class="st0 st1 st2" transform="translate(-3.828 42.074)">40</text>
				<text class="st0 st1 st2" transform="translate(-3.828 29.518)">50</text>
				<text class="st0 st1 st2" transform="translate(-3.828 16.963)">60</text>
			<line class="st0" x1="-2.4" x2="-2.4" y1="90.6" y2="15.3"/>
					<line class="st0" x1="-2.4" y1="90.6" y2="90.6"/>
					<line class="st0" x1="-2.4" y1="78.1" y2="78.1"/>
					<line class="st0" x1="-2.4" y1="65.5" y2="65.5"/>
					<line class="st0" x1="-2.4" y1="53" y2="53"/>
					<line class="st0" x1="-2.4" y1="40.4" y2="40.4"/>
					<line class="st0" x1="-2.4" y1="27.9" y2="27.9"/>
					<line class="st0" x1="-2.4" y1="15.3" y2="15.3"/>
				<rect class="st0" x="21.2" y="4.2" width="5.9" height="7.1"/>
					<rect class="st3" x="56.2" y="34.1" width="10" height="56.5"/>
				<rect class="st0" x="-2.4" y="4.2" width="5.9" height="7.1"/>
					<rect class="st4" x="21.3" y="21.6" width="10" height="69.1"/>
			<text transform="translate(27.828 9.4315)"><tspan class="st0 st1 st2" x="0" y="0">Despie</tspan><tspan class="st0 st1 st2" x="19.4" y="0">r</tspan><tspan class="st0 st1 st2" x="21.9" y="0">t</tspan><tspan class="st0 st1 st2" x="24.2" y="0">o</tspan></text>
			<text class="st0 st1 st2" transform="translate(4.2702 9.4315)">Dormido</text>
	<line class="st0" x1="-.8" x2="87.5" y1="80" y2="80"/>
	<line class="st0" x1="-.8" x2="87.5" y1="67.5" y2="67.5"/>
	<line class="st0" x1="-.8" x2="87.5" y1="55" y2="55"/>
	<line class="st0" x1="-.8" x2="87.5" y1="42.4" y2="42.4"/>
	<line class="st0" x1="-.8" x2="87.5" y1="17.6" y2="17.6"/>
	<line class="st5" x1=".2" x2="88.5" y1="90.6" y2="90.6"/>
		<rect class="st0" x="9" y="3" width="34" height="16"/>
		<text transform="matrix(1.0034 0 0 1 19.461 8.1887)"><tspan class="st6 st7 st8" x="0" y="0">55%</tspan><tspan class="st6 st1 st8" x="-5.5" y="8.9">Dormido</tspan></text>
		<rect class="st0" x="-3" y="94.5" width="96" height="7"/>
		<text class="st6 st1 st9" transform="matrix(1.0333 0 0 1 22.921 99.585)">Actividad diaria</text>
		<rect class="st0" x="45" y="15" width="32" height="16"/>
		<text transform="matrix(1.0017 0 0 1 54.324 20.189)"><tspan class="st6 st7 st8" x="0" y="0">45%</tspan><tspan class="st6 st1 st8" x="-7" y="8.9">Despierto</tspan></text>
</svg>
