<?xml version="1.0" encoding="UTF-8"?>
<svg enable-background="new 0 0 66.2 100" version="1.1" viewBox="0 0 66.2 100" xml:space="preserve" xmlns="http://www.w3.org/2000/svg" xmlns:xlink="http://www.w3.org/1999/xlink">
<style type="text/css">
	.st0{fill:#FDF2EA;}
	.st1{fill:#FAD8BF;}
	.st2{clip-path:url(#d);}
	.st3{fill:none;stroke:#1D1E1C;stroke-width:0.2174;stroke-miterlimit:10;}
	.st4{fill:none;}
	.st5{fill:none;stroke:#1D1E1C;stroke-width:0.1995;stroke-miterlimit:10;stroke-dasharray:0.5495,0.5495;}
	.st6{fill:#EF781F;}
	.st7{fill:none;stroke:#1D1E1C;stroke-width:0.15;stroke-miterlimit:10;}
	.st8{fill:url(#c);}
	.st9{fill:#D8D8D8;}
	.st10{fill:#FFFFFF;}
	.st11{clip-path:url(#a);}
	.st12{fill:url(#SVGID_6_);}
	.st13{fill:#1E1E1C;}
	.st14{font-family:'roboto';}
	.st15{font-size:7.9242px;}
</style>
		<path class="st0" d="m-492.3 209.5l11-33.7 8.4-23 9.9-10.6 9.9-14.1v-12.6l9.5-15.4 7.2-10.2 5.3-12.2 7.1-9.4c0.4-0.5 1.1-0.4 1.3 0.1l9 18.8 6.8 7.3 6.4 16.8 2.5 10.8 7.3-6.4c0.7-0.6 1.9-0.3 2.1 0.6l6.5 22 3 13.8 16.2 6.7 16.8 35.6 6 10.6v4.3"/>
		<path class="st1" d="m-327.1 209.5l-10.5-18.6c-0.1-0.2-0.2-0.3-0.3-0.5l-7.3-6.6c-0.2-0.2-0.3-0.5-0.3-0.8v-11.6c0-0.2-0.1-0.4-0.2-0.6l-15.9-20.6c-0.1-0.1-0.1-0.2-0.2-0.3l-8-21.8c0-0.1-0.1-0.2-0.1-0.3l-4.1-5.6c-0.2-0.3-0.5-0.4-0.8-0.4h-1.2c-0.3 0-0.7 0.2-0.9 0.5l-4.8 7.1c-0.4 0.6-1.2 0.6-1.6 0.1l-5.7-6.6c-0.5-0.5-1.3-0.5-1.7 0.2l-6.1 10.7v0.1l-7.8 16.4v0.1l-4 7.1c-0.4 0.7-1.3 0.7-1.8 0.1l-2.5-3.9c-0.5-0.8-1.7-0.5-1.9 0.3l-2.5 11.8c0 0.1 0 0.2-0.1 0.2l-7.8 15.9-4.2 7.5c0 0.1-0.1 0.1-0.1 0.2l-2.4 7c-0.1 0.3-0.4 0.5-0.7 0.6l-2.3 0.7c-0.3 0.1-0.6 0.4-0.7 0.7l-1.6 5.3v0.1l-2 5.4"/>
			<defs>
				<path id="e" d="m-346.8 169.9l-14.8-20.6c-0.1-0.1-0.1-0.2-0.2-0.3l-5.4-14.7h-91l-4.8 6.9-9.9 10.6-7 19h133.3v-0.3c0-0.2-0.1-0.5-0.2-0.6z"/>
			</defs>
			<clipPath id="d">
				<use xlink:href="#e"/>
			</clipPath>
			<g class="st2">
				<image transform="translate(-517 98)" width="207" height="109" overflow="visible" xlink:href="864C5B5D.png">
				</image>
			</g>
			<line class="st3" x1="-499.3" x2="-306.1" y1="209.5" y2="209.5"/>
					<line class="st4" x1="-499.3" x2="-499.3" y1="209.5" y2="205.9"/>
					<line class="st4" x1="-395" x2="-395" y1="209.5" y2="205.9"/>
					<line class="st4" x1="-290.7" x2="-290.7" y1="209.5" y2="205.9"/>
			<g fill="#1D1D1B" font-family="'BarlowSemiCondensed-Light'" font-size="7.5px">
					<text transform="translate(-506.17 213.18)">0</text>
				<text transform="translate(-517.12 197.16)"><tspan x="0" y="0">1</tspan><tspan x="2.2" y="0">.</tspan><tspan x="3.7" y="0">000</tspan></text>
				<text transform="translate(-518.38 181.13)"><tspan x="0" y="0">2</tspan><tspan x="3.5" y="0">.</tspan><tspan x="5" y="0">000</tspan></text>
				<text transform="translate(-518.36 165.1)"><tspan x="0" y="0">3</tspan><tspan x="3.4" y="0">.</tspan><tspan x="4.9" y="0">000</tspan></text>
				<text transform="translate(-518.36 149.07)"><tspan x="0" y="0">4</tspan><tspan x="3.4" y="0">.</tspan><tspan x="4.9" y="0">000</tspan></text>
				<text transform="translate(-518.32 133.05)"><tspan x="0" y="0">5</tspan><tspan x="3.4" y="0">.</tspan><tspan x="4.9" y="0">000</tspan></text>
				<text transform="translate(-518.34 117.02)"><tspan x="0" y="0">6</tspan><tspan x="3.4" y="0">.</tspan><tspan x="4.9" y="0">000</tspan></text>
				<text transform="translate(-517.64 100.99)"><tspan x="0" y="0">7</tspan><tspan x="2.7" y="0">.</tspan><tspan x="4.2" y="0">000</tspan></text>
				<text transform="translate(-518.41 84.965)"><tspan x="0" y="0">8</tspan><tspan x="3.5" y="0">.</tspan><tspan x="5" y="0">000</tspan></text>
				<text transform="translate(-518.37 68.937)"><tspan x="0" y="0">9</tspan><tspan x="3.4" y="0">.</tspan><tspan x="4.9" y="0">000</tspan></text>
			</g>
			<line class="st4" x1="-499.3" x2="-499.3" y1="209.5" y2="65.3"/>
					<line class="st3" x1="-499.3" x2="-306.1" y1="209.5" y2="209.5"/>
					<line class="st5" x1="-499.3" x2="-306.1" y1="193.5" y2="193.5"/>
					<line class="st5" x1="-499.3" x2="-306.1" y1="177.5" y2="177.5"/>
					<line class="st5" x1="-499.3" x2="-306.1" y1="161.4" y2="161.4"/>
					<line class="st5" x1="-499.3" x2="-306.1" y1="145.4" y2="145.4"/>
					<line class="st5" x1="-499.3" x2="-306.1" y1="129.4" y2="129.4"/>
					<line class="st5" x1="-499.3" x2="-290.7" y1="113.4" y2="113.4"/>
					<line class="st5" x1="-499.3" x2="-290.7" y1="97.3" y2="97.3"/>
					<line class="st5" x1="-499.3" x2="-290.7" y1="81.3" y2="81.3"/>
					<line class="st5" x1="-499.3" x2="-290.7" y1="65.3" y2="65.3"/>
					<line class="st4" x1="-342.9" x2="-447.1" y1="113.4" y2="67.7"/>
					<rect class="st4" x="-450.1" y="64.7" width="6" height="6"/>
					<rect class="st4" x="-345.9" y="110.4" width="6" height="6"/>
		<g font-family="'MyriadPro-Regular'" font-size="7.3361px">
			<text class="st4" transform="translate(-416.21 22.282)">20</text>
			<text class="st4" transform="translate(-384.91 22.282)">40</text>
			<text class="st4" transform="translate(-353.61 22.282)">60</text>
			<text class="st4" transform="translate(-322.31 22.282)">80</text>
			<text class="st4" transform="translate(-292.89 22.282)">100</text>
		</g>
		<line class="st4" x1="-443.8" x2="-287.2" y1="15.3" y2="15.3"/>
				<line class="st4" x1="-443.8" x2="-443.8" y1="15.3" y2="13"/>
				<line class="st4" x1="-412.4" x2="-412.4" y1="15.3" y2="13"/>
				<line class="st4" x1="-381.1" x2="-381.1" y1="15.3" y2="13"/>
				<line class="st4" x1="-349.8" x2="-349.8" y1="15.3" y2="13"/>
				<line class="st4" x1="-318.5" x2="-318.5" y1="15.3" y2="13"/>
				<line class="st4" x1="-287.2" x2="-287.2" y1="15.3" y2="13"/>
		<line class="st4" x1="-443.8" x2="-443.8" y1="15.3" y2="-77.1"/>
				<line class="st6" x1="-443.8" x2="-439.8" y1="9.6" y2="9.6"/>
				<line class="st6" x1="-443.8" x2="-439.8" y1="-2" y2="-2"/>
				<line class="st6" x1="-443.8" x2="-439.8" y1="-13.5" y2="-13.5"/>
				<line class="st6" x1="-443.8" x2="-439.8" y1="-25.1" y2="-25.1"/>
				<line class="st6" x1="-443.8" x2="-439.8" y1="-36.7" y2="-36.7"/>
				<line class="st6" x1="-443.8" x2="-439.8" y1="-48.2" y2="-48.2"/>
				<line class="st6" x1="-443.8" x2="-439.8" y1="-59.8" y2="-59.8"/>
				<line class="st6" x1="-443.8" x2="-439.8" y1="-71.3" y2="-71.3"/>
				<rect class="st6" x="-443.8" y="-76.1" width="137.7" height="9.6"/>
				<rect class="st6" x="-443.8" y="-64.6" width="112.7" height="9.6"/>
				<rect class="st6" x="-443.8" y="-53" width="84.5" height="9.6"/>
				<rect class="st6" x="-443.8" y="-41.4" width="61" height="9.6"/>
				<rect class="st6" x="-443.8" y="-29.9" width="42.3" height="9.6"/>
				<rect class="st6" x="-443.8" y="-18.3" width="34.4" height="9.6"/>
				<rect class="st6" x="-443.8" y="-6.8" width="26.6" height="9.6"/>
				<rect class="st6" x="-443.8" y="4.8" width="20.3" height="9.6"/>
<line class="st7" x1="-520.1" x2="600.6" y1="228.7" y2="228.7"/>
<rect class="st4" x="-516" y="31.2" width="211.5" height="22.4"/>
<text transform="translate(-516 38.191)"><tspan x="0" y="0" fill="#1D1D1B" font-family="'BarlowSemiCondensed-Bold'" font-size="10px">asentamiento sobre montañas</tspan><tspan class="st13" x="0" y="12" font-family="'BarlowSemiCondensed-Light'" font-size="7.5px">Con el paso del tiempo, esta especie ha prefierido migrar a mayor altura. </tspan></text>
	<rect class="st4" x="-507.1" y="216.4" width="180.6" height="9.3"/>
	<text transform="translate(-442.09 221.63)" font-family="'BarlowSemiCondensed-Light'" font-size="7.5px"><tspan class="st13" x="0" y="0">Hábita</tspan><tspan class="st13" x="17.7" y="0">t </tspan><tspan class="st13" x="21.5" y="0">pand</tspan><tspan class="st13" x="35.1" y="0">a </tspan><tspan class="st13" x="40" y="0">roj</tspan><tspan class="st13" x="47.1" y="0">o</tspan></text>
<rect class="st4" x="-515.5" y="216.4" width="26.7" height="7.4"/>
<text class="st13" transform="translate(-505.67 221.63)" font-family="'BarlowSemiCondensed-Light'" font-size="7.5px"> m</text>
	<rect class="st4" x="-464.1" y="59.5" width="86.2" height="16.2"/>
	<text transform="translate(-434.07 65.464)"><tspan class="st13 st14" x="0" y="0" font-size="8.5px">8.84</tspan><tspan class="st13 st14" x="14.1" y="0" font-size="8.5px">9 m</tspan><tspan class="st13" x="-23.4" y="9.3" font-family="'BarlowSemiCondensed-Light'" font-size="7.5px">Everest</tspan><tspan class="st13" x="-2.6" y="9.3" font-family="'BarlowSemiCondensed-Light'" font-size="7.5px">, </tspan><tspan class="st13" x="0.5" y="9.3" font-family="'BarlowSemiCondensed-Light'" font-size="7.5px">e</tspan><tspan class="st13" x="3.9" y="9.3" font-family="'BarlowSemiCondensed-Light'" font-size="7.5px">l </tspan><tspan class="st13" x="6.9" y="9.3" font-family="'BarlowSemiCondensed-Light'" font-size="7.5px">punt</tspan><tspan class="st13" x="19.4" y="9.3" font-family="'BarlowSemiCondensed-Light'" font-size="7.5px">o </tspan><tspan class="st13" x="24.4" y="9.3" font-family="'BarlowSemiCondensed-Light'" font-size="7.5px">má</tspan><tspan class="st13" x="33" y="9.3" font-family="'BarlowSemiCondensed-Light'" font-size="7.5px">s </tspan><tspan class="st13" x="37.7" y="9.3" font-family="'BarlowSemiCondensed-Light'" font-size="7.5px">alto</tspan><tspan class="st13" x="47.9" y="9.3" font-family="'BarlowSemiCondensed-Light'" font-size="7.5px">.</tspan></text>
<rect class="st4" x="-516.3" y="-103.7" width="209.6" height="20.4"/>
<text transform="translate(-516.28 -96.686)" fill="#1D1D1B"><tspan x="0" y="0" font-family="'BarlowSemiCondensed-Bold'" font-size="10px">DESAPACERÁN en TRES décadas </tspan><tspan x="0" y="12" font-family="'BarlowSemiCondensed-Light'" font-size="7.5px">Este pronóstico se calcula en base a los siguientes factores:</tspan></text>
<rect class="st4" x="-515.9" y="231.9" width="439" height="18.3"/>
<text transform="translate(-515.9 237.18)" font-size="7.5px"><tspan x="0" y="0" fill="#1D1D1B" font-family="'BarlowSemiCondensed-Bold'">Fuentes: </tspan><tspan class="st13" x="28.3" y="0" font-family="'BarlowSemiCondensed-Light'">Red Panda Network. UICN Red List. Buin Zoo.</tspan></text>
<linearGradient id="c" x1="-402.36" x2="-289.71" y1="101.89" y2="101.89" gradientUnits="userSpaceOnUse">
	<stop stop-color="#fff" stop-opacity="0" offset="0"/>
	<stop stop-color="#fff" stop-opacity=".1011" offset=".036672"/>
	<stop stop-color="#fff" offset=".3628"/>
</linearGradient>
<rect class="st8" x="-402.4" y="75.7" width="112.6" height="52.3"/>
<circle class="st6" cx="-375.1" cy="85" r="4"/>
<rect class="st4" x="-366.8" y="81.4" width="60.7" height="46.7"/>
<text transform="translate(-366.77 87.317)" fill="#1D1D1B"><tspan class="st14" x="0" y="0" font-size="8.5px">Viven entre 2.300 </tspan><tspan class="st14" x="0" y="9" font-size="8.5px">y 4.000 metros </tspan><tspan class="st14" x="0" y="18" font-size="8.5px">de altitud: </tspan><tspan x="36.2" y="18" font-family="'BarlowSemiCondensed-Light'" font-size="7.5px">área </tspan><tspan x="0" y="27" font-family="'BarlowSemiCondensed-Light'" font-size="7.5px">con mayor población </tspan><tspan x="0" y="36" font-family="'BarlowSemiCondensed-Light'" font-size="7.5px">de esta especie.</tspan></text>
				<path class="st6" d="m-332.2-23.2v-26.4c14.6 0 26.4 11.8 26.4 26.4s-11.8 26.4-26.4 26.4c-14 0-25.3-10.6-26.3-24.5l26.3-1.9z"/>
				<path class="st9" d="m-332.2-23.2l-26.3 1.8c-1-14.5 9.9-27.1 24.5-28.1 0.6 0 1.3-0.1 1.8-0.1v26.4z"/>
<circle class="st10" cx="-332.2" cy="-23.3" r="16.8"/>
<rect class="st4" x="-344.9" y="-26.9" width="27.6" height="6.4"/>
<text class="st13 st14" transform="translate(-338.61 -20.992)" font-size="8.5px">74%</text>
	<rect class="st4" x="-511.5" y="-74.3" width="64.3" height="5.3"/>
		<text transform="translate(-507.69 -69.025)" fill="#1D1D1B" font-family="'BarlowSemiCondensed-Light'" font-size="7.5px">Intervención humana</text>
	<rect class="st4" x="-505.3" y="-62.3" width="58.1" height="5.3"/>
		<text transform="translate(-504.21 -57.098)" fill="#1D1D1B" font-family="'BarlowSemiCondensed-Light'" font-size="7.5px">Desastres naturales</text>
	<rect class="st4" x="-505.3" y="-50.9" width="58.1" height="5.3"/>
		<text transform="translate(-500.25 -45.674)" fill="#1D1D1B" font-family="'BarlowSemiCondensed-Light'" font-size="7.5px">Rastros de ganado</text>
	<rect class="st4" x="-500" y="-39.5" width="52.8" height="5.3"/>
		<text transform="translate(-493.89 -34.28)" fill="#1D1D1B" font-family="'BarlowSemiCondensed-Light'" font-size="7.5px">Huella ecológica</text>
	<rect class="st4" x="-537.4" y="-27.8" width="90.1" height="5.3"/>
		<text transform="translate(-513.04 -22.582)" fill="#1D1D1B" font-family="'BarlowSemiCondensed-Light'" font-size="7.5px">Excremento de ganado</text>
	<rect class="st4" x="-520.2" y="-16.6" width="73" height="5.3"/>
		<text transform="translate(-516.44 -11.344)" fill="#1D1D1B" font-family="'BarlowSemiCondensed-Light'" font-size="7.5px">Deslizamiento de tierras</text>
	<rect class="st4" x="-552.7" y="-4.8" width="105.5" height="5.5"/>
		<text transform="translate(-494.91 .4019)" fill="#1D1D1B" font-family="'BarlowSemiCondensed-Light'" font-size="7.5px">Residuos sólidos </text>
	<rect class="st4" x="-490.6" y="7.2" width="43.4" height="7.1"/>
		<text transform="translate(-481.23 12.431)" fill="#1D1D1B" font-family="'BarlowSemiCondensed-Light'" font-size="7.5px">Caza furtiva</text>
<rect class="st4" x="-319.5" y="-74.3" width="14.4" height="5.8"/>
<text class="st10" transform="translate(-319.5 -69.026)" font-family="'BarlowSemiCondensed-Bold'" font-size="7.5px">88%</text>
<rect class="st4" x="-344.5" y="-62.3" width="14.4" height="5.8"/>
<text class="st10" transform="translate(-344.45 -57.098)" font-family="'BarlowSemiCondensed-Bold'" font-size="7.5px">72%</text>
<rect class="st4" x="-373.6" y="-50.9" width="14.4" height="5.8"/>
<text class="st10" transform="translate(-373.59 -45.673)" font-family="'BarlowSemiCondensed-Bold'" font-size="7.5px">54%</text>
<rect class="st4" x="-396.6" y="-39.5" width="14.4" height="5.8"/>
<text class="st10" transform="translate(-396.63 -34.28)" font-family="'BarlowSemiCondensed-Bold'" font-size="7.5px">39%</text>
<rect class="st4" x="-415.7" y="-27.8" width="14.4" height="5.8"/>
<text class="st10" transform="translate(-415.73 -22.582)" font-family="'BarlowSemiCondensed-Bold'" font-size="7.5px">27%</text>
<rect class="st4" x="-423.3" y="-16.6" width="14.4" height="5.8"/>
<text class="st10" transform="translate(-423.33 -11.344)" font-family="'BarlowSemiCondensed-Bold'" font-size="7.5px">22%</text>
<rect class="st4" x="-429.5" y="-4.8" width="14.4" height="5.8"/>
<text class="st10" transform="translate(-429.53 .402)" font-family="'BarlowSemiCondensed-Bold'" font-size="7.5px">17%</text>
<rect class="st4" x="-436.2" y="7.2" width="14.4" height="5.8"/>
<text class="st10" transform="translate(-436.21 12.431)" font-family="'BarlowSemiCondensed-Bold'" font-size="7.5px">13%</text>
<rect class="st4" x="-365.1" y="10.8" width="62.5" height="19.4"/>
<text transform="translate(-361.78 16.01)" fill="#1D1D1B" font-family="'BarlowSemiCondensed-Light'" font-size="7.5px"><tspan x="0" y="0">Taza  de mortalidad </tspan><tspan x="13.5" y="9.3">cachorros</tspan></text>
		<path class="st0" d="m-492.3 209.5l11-33.7 8.4-23 9.9-10.6 9.9-14.1v-12.6l9.5-15.4 7.2-10.2 5.3-12.2 7.1-9.4c0.4-0.5 1.1-0.4 1.3 0.1l9 18.8 6.8 7.3 6.4 16.8 2.5 10.8 7.3-6.4c0.7-0.6 1.9-0.3 2.1 0.6l6.5 22 3 13.8 16.2 6.7 16.8 35.6 6 10.6v4.3"/>
		<path class="st1" d="m-327.1 209.5l-10.5-18.6c-0.1-0.2-0.2-0.3-0.3-0.5l-7.3-6.6c-0.2-0.2-0.3-0.5-0.3-0.8v-11.6c0-0.2-0.1-0.4-0.2-0.6l-15.9-20.6c-0.1-0.1-0.1-0.2-0.2-0.3l-8-21.8c0-0.1-0.1-0.2-0.1-0.3l-4.1-5.6c-0.2-0.3-0.5-0.4-0.8-0.4h-1.2c-0.3 0-0.7 0.2-0.9 0.5l-4.8 7.1c-0.4 0.6-1.2 0.6-1.6 0.1l-5.7-6.6c-0.5-0.5-1.3-0.5-1.7 0.2l-6.1 10.7v0.1l-7.8 16.4v0.1l-4 7.1c-0.4 0.7-1.3 0.7-1.8 0.1l-2.5-3.9c-0.5-0.8-1.7-0.5-1.9 0.3l-2.5 11.8c0 0.1 0 0.2-0.1 0.2l-7.8 15.9-4.2 7.5c0 0.1-0.1 0.1-0.1 0.2l-2.4 7c-0.1 0.3-0.4 0.5-0.7 0.6l-2.3 0.7c-0.3 0.1-0.6 0.4-0.7 0.7l-1.6 5.3v0.1l-2 5.4"/>
			<defs>
				<path id="b" d="m-346.8 169.9l-14.8-20.6c-0.1-0.1-0.1-0.2-0.2-0.3l-5.4-14.7h-91l-4.8 6.9-9.9 10.6-7 19h133.3v-0.3c0-0.2-0.1-0.5-0.2-0.6z"/>
			</defs>
			<clipPath id="a">
				<use xlink:href="#b"/>
			</clipPath>
			<g class="st11">
				<image transform="translate(-517 98)" width="207" height="109" overflow="visible" xlink:href="864C5B5F.png">
				</image>
			</g>
			<line class="st3" x1="-499.3" x2="-306.1" y1="209.5" y2="209.5"/>
					<line class="st4" x1="-499.3" x2="-499.3" y1="209.5" y2="205.9"/>
					<line class="st4" x1="-395" x2="-395" y1="209.5" y2="205.9"/>
					<line class="st4" x1="-290.7" x2="-290.7" y1="209.5" y2="205.9"/>
			<g fill="#1D1D1B" font-family="'BarlowSemiCondensed-Light'" font-size="7.5px">
					<text transform="translate(-506.17 213.18)">0</text>
				<text transform="translate(-517.12 197.16)"><tspan x="0" y="0">1</tspan><tspan x="2.2" y="0">.</tspan><tspan x="3.7" y="0">000</tspan></text>
				<text transform="translate(-518.38 181.13)"><tspan x="0" y="0">2</tspan><tspan x="3.5" y="0">.</tspan><tspan x="5" y="0">000</tspan></text>
				<text transform="translate(-518.36 165.1)"><tspan x="0" y="0">3</tspan><tspan x="3.4" y="0">.</tspan><tspan x="4.9" y="0">000</tspan></text>
				<text transform="translate(-518.36 149.07)"><tspan x="0" y="0">4</tspan><tspan x="3.4" y="0">.</tspan><tspan x="4.9" y="0">000</tspan></text>
				<text transform="translate(-518.32 133.05)"><tspan x="0" y="0">5</tspan><tspan x="3.4" y="0">.</tspan><tspan x="4.9" y="0">000</tspan></text>
				<text transform="translate(-518.34 117.02)"><tspan x="0" y="0">6</tspan><tspan x="3.4" y="0">.</tspan><tspan x="4.9" y="0">000</tspan></text>
				<text transform="translate(-517.64 100.99)"><tspan x="0" y="0">7</tspan><tspan x="2.7" y="0">.</tspan><tspan x="4.2" y="0">000</tspan></text>
				<text transform="translate(-518.41 84.965)"><tspan x="0" y="0">8</tspan><tspan x="3.5" y="0">.</tspan><tspan x="5" y="0">000</tspan></text>
				<text transform="translate(-518.37 68.937)"><tspan x="0" y="0">9</tspan><tspan x="3.4" y="0">.</tspan><tspan x="4.9" y="0">000</tspan></text>
			</g>
			<line class="st4" x1="-499.3" x2="-499.3" y1="209.5" y2="65.3"/>
					<line class="st3" x1="-499.3" x2="-306.1" y1="209.5" y2="209.5"/>
					<line class="st5" x1="-499.3" x2="-306.1" y1="193.5" y2="193.5"/>
					<line class="st5" x1="-499.3" x2="-306.1" y1="177.5" y2="177.5"/>
					<line class="st5" x1="-499.3" x2="-306.1" y1="161.4" y2="161.4"/>
					<line class="st5" x1="-499.3" x2="-306.1" y1="145.4" y2="145.4"/>
					<line class="st5" x1="-499.3" x2="-306.1" y1="129.4" y2="129.4"/>
					<line class="st5" x1="-499.3" x2="-290.7" y1="113.4" y2="113.4"/>
					<line class="st5" x1="-499.3" x2="-290.7" y1="97.3" y2="97.3"/>
					<line class="st5" x1="-499.3" x2="-290.7" y1="81.3" y2="81.3"/>
					<line class="st5" x1="-499.3" x2="-290.7" y1="65.3" y2="65.3"/>
					<line class="st4" x1="-342.9" x2="-447.1" y1="113.4" y2="67.7"/>
					<rect class="st4" x="-450.1" y="64.7" width="6" height="6"/>
					<rect class="st4" x="-345.9" y="110.4" width="6" height="6"/>
		<g font-family="'MyriadPro-Regular'" font-size="7.3361px">
			<text class="st4" transform="translate(-416.21 22.282)">20</text>
			<text class="st4" transform="translate(-384.91 22.282)">40</text>
			<text class="st4" transform="translate(-353.61 22.282)">60</text>
			<text class="st4" transform="translate(-322.31 22.282)">80</text>
			<text class="st4" transform="translate(-292.89 22.282)">100</text>
		</g>
		<line class="st4" x1="-443.8" x2="-287.2" y1="15.3" y2="15.3"/>
				<line class="st4" x1="-443.8" x2="-443.8" y1="15.3" y2="13"/>
				<line class="st4" x1="-412.4" x2="-412.4" y1="15.3" y2="13"/>
				<line class="st4" x1="-381.1" x2="-381.1" y1="15.3" y2="13"/>
				<line class="st4" x1="-349.8" x2="-349.8" y1="15.3" y2="13"/>
				<line class="st4" x1="-318.5" x2="-318.5" y1="15.3" y2="13"/>
				<line class="st4" x1="-287.2" x2="-287.2" y1="15.3" y2="13"/>
		<line class="st4" x1="-443.8" x2="-443.8" y1="15.3" y2="-77.1"/>
				<line class="st6" x1="-443.8" x2="-439.8" y1="9.6" y2="9.6"/>
				<line class="st6" x1="-443.8" x2="-439.8" y1="-2" y2="-2"/>
				<line class="st6" x1="-443.8" x2="-439.8" y1="-13.5" y2="-13.5"/>
				<line class="st6" x1="-443.8" x2="-439.8" y1="-25.1" y2="-25.1"/>
				<line class="st6" x1="-443.8" x2="-439.8" y1="-36.7" y2="-36.7"/>
				<line class="st6" x1="-443.8" x2="-439.8" y1="-48.2" y2="-48.2"/>
				<line class="st6" x1="-443.8" x2="-439.8" y1="-59.8" y2="-59.8"/>
				<line class="st6" x1="-443.8" x2="-439.8" y1="-71.3" y2="-71.3"/>
				<rect class="st6" x="-443.8" y="-76.1" width="137.7" height="9.6"/>
				<rect class="st6" x="-443.8" y="-64.6" width="112.7" height="9.6"/>
				<rect class="st6" x="-443.8" y="-53" width="84.5" height="9.6"/>
				<rect class="st6" x="-443.8" y="-41.4" width="61" height="9.6"/>
				<rect class="st6" x="-443.8" y="-29.9" width="42.3" height="9.6"/>
				<rect class="st6" x="-443.8" y="-18.3" width="34.4" height="9.6"/>
				<rect class="st6" x="-443.8" y="-6.8" width="26.6" height="9.6"/>
				<rect class="st6" x="-443.8" y="4.8" width="20.3" height="9.6"/>
<line class="st7" x1="-520.1" x2="600.6" y1="228.7" y2="228.7"/>
<rect class="st4" x="-516" y="31.2" width="211.5" height="22.4"/>
<text transform="translate(-516 38.191)"><tspan x="0" y="0" fill="#1D1D1B" font-family="'BarlowSemiCondensed-Bold'" font-size="10px">asentamiento sobre montañas</tspan><tspan class="st13" x="0" y="12" font-family="'BarlowSemiCondensed-Light'" font-size="7.5px">Con el paso del tiempo, esta especie ha prefierido migrar a mayor altura. </tspan></text>
	<rect class="st4" x="-507.1" y="216.4" width="180.6" height="9.3"/>
	<text transform="translate(-442.09 221.63)" font-family="'BarlowSemiCondensed-Light'" font-size="7.5px"><tspan class="st13" x="0" y="0">Hábita</tspan><tspan class="st13" x="17.7" y="0">t </tspan><tspan class="st13" x="21.5" y="0">pand</tspan><tspan class="st13" x="35.1" y="0">a </tspan><tspan class="st13" x="40" y="0">roj</tspan><tspan class="st13" x="47.1" y="0">o</tspan></text>
<rect class="st4" x="-515.5" y="216.4" width="26.7" height="7.4"/>
<text class="st13" transform="translate(-505.67 221.63)" font-family="'BarlowSemiCondensed-Light'" font-size="7.5px"> m</text>
	<rect class="st4" x="-464.1" y="59.5" width="86.2" height="16.2"/>
	<text transform="translate(-434.07 65.464)"><tspan class="st13 st14" x="0" y="0" font-size="8.5px">8.84</tspan><tspan class="st13 st14" x="14.1" y="0" font-size="8.5px">9 m</tspan><tspan class="st13" x="-23.4" y="9.3" font-family="'BarlowSemiCondensed-Light'" font-size="7.5px">Everest</tspan><tspan class="st13" x="-2.6" y="9.3" font-family="'BarlowSemiCondensed-Light'" font-size="7.5px">, </tspan><tspan class="st13" x="0.5" y="9.3" font-family="'BarlowSemiCondensed-Light'" font-size="7.5px">e</tspan><tspan class="st13" x="3.9" y="9.3" font-family="'BarlowSemiCondensed-Light'" font-size="7.5px">l </tspan><tspan class="st13" x="6.9" y="9.3" font-family="'BarlowSemiCondensed-Light'" font-size="7.5px">punt</tspan><tspan class="st13" x="19.4" y="9.3" font-family="'BarlowSemiCondensed-Light'" font-size="7.5px">o </tspan><tspan class="st13" x="24.4" y="9.3" font-family="'BarlowSemiCondensed-Light'" font-size="7.5px">má</tspan><tspan class="st13" x="33" y="9.3" font-family="'BarlowSemiCondensed-Light'" font-size="7.5px">s </tspan><tspan class="st13" x="37.7" y="9.3" font-family="'BarlowSemiCondensed-Light'" font-size="7.5px">alto</tspan><tspan class="st13" x="47.9" y="9.3" font-family="'BarlowSemiCondensed-Light'" font-size="7.5px">.</tspan></text>
<rect class="st4" x="-516.3" y="-103.7" width="209.6" height="20.4"/>
<text transform="translate(-516.28 -96.686)" fill="#1D1D1B"><tspan x="0" y="0" font-family="'BarlowSemiCondensed-Bold'" font-size="10px">DESAPACERÁN en TRES décadas </tspan><tspan x="0" y="12" font-family="'BarlowSemiCondensed-Light'" font-size="7.5px">Este pronóstico se calcula en base a los siguientes factores:</tspan></text>
<rect class="st4" x="-515.9" y="231.9" width="439" height="18.3"/>
<text transform="translate(-515.9 237.18)" font-size="7.5px"><tspan x="0" y="0" fill="#1D1D1B" font-family="'BarlowSemiCondensed-Bold'">Fuentes: </tspan><tspan class="st13" x="28.3" y="0" font-family="'BarlowSemiCondensed-Light'">Red Panda Network. UICN Red List. Buin Zoo.</tspan></text>
<rect class="st12" x="-402.4" y="75.7" width="112.6" height="52.3"/>
<circle class="st6" cx="-375.1" cy="85" r="4"/>
<rect class="st4" x="-366.8" y="81.4" width="60.7" height="46.7"/>
<text transform="translate(-366.77 87.317)" fill="#1D1D1B"><tspan class="st14" x="0" y="0" font-size="8.5px">Viven entre 2.300 </tspan><tspan class="st14" x="0" y="9" font-size="8.5px">y 4.000 metros </tspan><tspan class="st14" x="0" y="18" font-size="8.5px">de altitud: </tspan><tspan x="36.2" y="18" font-family="'BarlowSemiCondensed-Light'" font-size="7.5px">área </tspan><tspan x="0" y="27" font-family="'BarlowSemiCondensed-Light'" font-size="7.5px">con mayor población </tspan><tspan x="0" y="36" font-family="'BarlowSemiCondensed-Light'" font-size="7.5px">de esta especie.</tspan></text>
				<path class="st6" d="m-332.2-23.2v-26.4c14.6 0 26.4 11.8 26.4 26.4s-11.8 26.4-26.4 26.4c-14 0-25.3-10.6-26.3-24.5l26.3-1.9z"/>
				<path class="st9" d="m-332.2-23.2l-26.3 1.8c-1-14.5 9.9-27.1 24.5-28.1 0.6 0 1.3-0.1 1.8-0.1v26.4z"/>
<circle class="st10" cx="-332.2" cy="-23.3" r="16.8"/>
<rect class="st4" x="-344.9" y="-26.9" width="27.6" height="6.4"/>
<text class="st13 st14" transform="translate(-338.61 -20.992)" font-size="8.5px">74%</text>
	<rect class="st4" x="-511.5" y="-74.3" width="64.3" height="5.3"/>
		<text transform="translate(-507.69 -69.025)" fill="#1D1D1B" font-family="'BarlowSemiCondensed-Light'" font-size="7.5px">Intervención humana</text>
	<rect class="st4" x="-505.3" y="-62.3" width="58.1" height="5.3"/>
		<text transform="translate(-504.21 -57.098)" fill="#1D1D1B" font-family="'BarlowSemiCondensed-Light'" font-size="7.5px">Desastres naturales</text>
	<rect class="st4" x="-505.3" y="-50.9" width="58.1" height="5.3"/>
		<text transform="translate(-500.25 -45.674)" fill="#1D1D1B" font-family="'BarlowSemiCondensed-Light'" font-size="7.5px">Rastros de ganado</text>
	<rect class="st4" x="-500" y="-39.5" width="52.8" height="5.3"/>
		<text transform="translate(-493.89 -34.28)" fill="#1D1D1B" font-family="'BarlowSemiCondensed-Light'" font-size="7.5px">Huella ecológica</text>
	<rect class="st4" x="-537.4" y="-27.8" width="90.1" height="5.3"/>
		<text transform="translate(-513.04 -22.582)" fill="#1D1D1B" font-family="'BarlowSemiCondensed-Light'" font-size="7.5px">Excremento de ganado</text>
	<rect class="st4" x="-520.2" y="-16.6" width="73" height="5.3"/>
		<text transform="translate(-516.44 -11.344)" fill="#1D1D1B" font-family="'BarlowSemiCondensed-Light'" font-size="7.5px">Deslizamiento de tierras</text>
	<rect class="st4" x="-552.7" y="-4.8" width="105.5" height="5.5"/>
		<text transform="translate(-494.91 .4019)" fill="#1D1D1B" font-family="'BarlowSemiCondensed-Light'" font-size="7.5px">Residuos sólidos </text>
	<rect class="st4" x="-490.6" y="7.2" width="43.4" height="7.1"/>
		<text transform="translate(-481.23 12.431)" fill="#1D1D1B" font-family="'BarlowSemiCondensed-Light'" font-size="7.5px">Caza furtiva</text>
<rect class="st4" x="-319.5" y="-74.3" width="14.4" height="5.8"/>
<text class="st10" transform="translate(-319.5 -69.026)" font-family="'BarlowSemiCondensed-Bold'" font-size="7.5px">88%</text>
<rect class="st4" x="-344.5" y="-62.3" width="14.4" height="5.8"/>
<text class="st10" transform="translate(-344.45 -57.098)" font-family="'BarlowSemiCondensed-Bold'" font-size="7.5px">72%</text>
<rect class="st4" x="-373.6" y="-50.9" width="14.4" height="5.8"/>
<text class="st10" transform="translate(-373.59 -45.673)" font-family="'BarlowSemiCondensed-Bold'" font-size="7.5px">54%</text>
<rect class="st4" x="-396.6" y="-39.5" width="14.4" height="5.8"/>
<text class="st10" transform="translate(-396.63 -34.28)" font-family="'BarlowSemiCondensed-Bold'" font-size="7.5px">39%</text>
<rect class="st4" x="-415.7" y="-27.8" width="14.4" height="5.8"/>
<text class="st10" transform="translate(-415.73 -22.582)" font-family="'BarlowSemiCondensed-Bold'" font-size="7.5px">27%</text>
<rect class="st4" x="-423.3" y="-16.6" width="14.4" height="5.8"/>
<text class="st10" transform="translate(-423.33 -11.344)" font-family="'BarlowSemiCondensed-Bold'" font-size="7.5px">22%</text>
<rect class="st4" x="-429.5" y="-4.8" width="14.4" height="5.8"/>
<text class="st10" transform="translate(-429.53 .402)" font-family="'BarlowSemiCondensed-Bold'" font-size="7.5px">17%</text>
<rect class="st4" x="-436.2" y="7.2" width="14.4" height="5.8"/>
<text class="st10" transform="translate(-436.21 12.431)" font-family="'BarlowSemiCondensed-Bold'" font-size="7.5px">13%</text>
<rect class="st4" x="-365.1" y="10.8" width="62.5" height="19.4"/>
<text transform="translate(-361.78 16.01)" fill="#1D1D1B" font-family="'BarlowSemiCondensed-Light'" font-size="7.5px"><tspan x="0" y="0">Taza  de mortalidad </tspan><tspan x="13.5" y="9.3">cachorros</tspan></text>
				<path class="st6" d="M33.1,45.8V19.4c14.6,0,26.4,11.8,26.4,26.4S47.7,72.2,33.1,72.2c-14,0-25.3-10.6-26.3-24.5L33.1,45.8z"/>
				<path class="st9" d="M33.1,45.8L6.8,47.6c-1-14.5,9.9-27.1,24.5-28.1c0.6,0,1.3-0.1,1.8-0.1V45.8z"/>
<circle class="st10" cx="33" cy="46" r="17"/>
<rect class="st4" x="20" y="42" width="28" height="6"/>
<text class="st13 st14 st15" transform="matrix(1.0868 0 0 1 26.421 47.547)">74%</text>
</svg>
